<?xml version="1.0" encoding="UTF-8"?><svg xmlns="http://www.w3.org/2000/svg" viewBox="0 0 246.01 42.18"><defs><style>.d{fill:#fff;}</style></defs><g id="a"/><g id="b"><g id="c"><g><path class="d" d="M131.73,.65V40.96c0,.34-.28,.62-.62,.62h-12.67c-.19,0-.36-.08-.48-.23l-15.12-18.67c-.37-.45-1.1-.19-1.1,.39v17.89c0,.34-.28,.62-.62,.62h-11.53c-.34,0-.62-.28-.62-.62V.65c0-.34,.28-.62,.62-.62h11.96c.18,0,.35,.08,.47,.22l15.05,17.71c.37,.44,1.09,.18,1.09-.4V.65c0-.34,.28-.62,.62-.62h12.33c.34,0,.62,.28,.62,.62Z"/><path class="d" d="M40.86,0H19.46S.89-.69,0,20.68C0,20.68-.55,42.78,24.62,41.53c0,0,3.02-7.46,4.77-11.79,.26-.65,1.22-.46,1.22,.24v11.6h12.14V18.06H19.91l-3.06,10.38s-6.02-2.36-4.66-9.81c0,0,1.08-6.03,9.15-6.6,.02,0,.04,0,.06,0h14.69L40.86,0Z"/><path class="d" d="M66.26,42.18c-3.68,0-6.94-.72-9.77-2.17-2.83-1.45-5.06-3.44-6.68-5.97-1.62-2.53-2.44-5.44-2.44-8.73s.81-6.2,2.44-8.73c1.62-2.53,3.85-4.51,6.68-5.94,2.83-1.43,6.09-2.14,9.77-2.14s6.95,.71,9.8,2.14c2.85,1.43,5.08,3.41,6.68,5.94,1.6,2.53,2.41,5.45,2.41,8.73s-.8,6.2-2.41,8.73c-1.6,2.53-3.83,4.52-6.68,5.97-2.85,1.45-6.12,2.17-9.8,2.17Zm0-10.46c.99,0,1.88-.24,2.67-.71,.79-.48,1.43-1.2,1.9-2.17,.48-.97,.71-2.15,.71-3.53s-.24-2.6-.71-3.53c-.48-.93-1.11-1.63-1.9-2.11-.79-.48-1.68-.71-2.67-.71s-1.88,.24-2.67,.71c-.79,.48-1.43,1.18-1.9,2.11-.48,.93-.71,2.11-.71,3.53s.24,2.56,.71,3.53c.48,.97,1.11,1.69,1.9,2.17,.79,.48,1.68,.71,2.67,.71Z"/><path class="d" d="M169,16.03c-1.64-2.49-3.82-4.37-6.53-5.64-2.71-1.27-5.67-1.9-8.88-1.9-3.49,0-6.62,.71-9.42,2.14-2.79,1.42-4.99,3.4-6.59,5.94-1.6,2.53-2.41,5.44-2.41,8.73s.82,6.09,2.44,8.64c1.62,2.56,3.91,4.57,6.86,6.03,2.95,1.47,6.41,2.2,10.37,2.2,3.24,0,6.03-.44,8.34-1.34,2.32-.89,4.27-2.18,5.85-3.89l-7.01-7.07c-1.06,.8-2.09,1.39-3.06,1.79-.97,.39-2.2,.59-3.71,.59s-2.71-.25-3.74-.74c-1.03-.5-1.82-1.24-2.38-2.23-.15-.26-.27-.54-.38-.83h22.54c.04-.48,.08-1,.12-1.58,.04-.57,.06-1.09,.06-1.57,0-3.68-.82-6.77-2.47-9.27Zm-20.55,5.94c.12-.55,.29-1.06,.51-1.51,.43-.89,1.05-1.58,1.87-2.08,.81-.49,1.77-.74,2.88-.74s2.06,.25,2.85,.74c.79,.5,1.41,1.19,1.87,2.08,.23,.45,.4,.96,.52,1.51h-10.5Z"/><polygon class="d" points="210.85 41.58 195.47 41.58 190.98 34.65 186.02 41.58 171.47 41.58 183.74 25.5 171.83 9.08 186.97 9.08 191.59 15.99 196.48 9.08 210.55 9.08 198.64 24.91 210.85 41.58"/><path class="d" d="M241.4,12.23c-3.07-2.49-7.39-3.74-12.98-3.74-2.53,0-5.13,.32-7.78,.95s-4.93,1.54-6.83,2.73l4.28,8.85c1.07-.79,2.35-1.41,3.86-1.87,1.5-.45,2.99-.68,4.45-.68,2.18,0,3.75,.42,4.73,1.25,.74,.63,1.19,1.48,1.37,2.55h-5.38c-3.37,0-6.15,.38-8.35,1.13s-3.83,1.86-4.9,3.33c-1.07,1.46-1.6,3.24-1.6,5.34,0,1.86,.45,3.56,1.36,5.08,.91,1.53,2.26,2.74,4.04,3.65,1.78,.91,4,1.37,6.65,1.37,2.82,0,5.05-.59,6.72-1.78,1.07-.77,1.9-1.79,2.49-3.07v4.26h12.48V24.11c0-5.42-1.54-9.38-4.61-11.88Zm-10.51,21.12c-.77,.5-1.62,.74-2.53,.74-.99,0-1.77-.24-2.34-.74-.58-.49-.86-1.12-.86-1.87,0-.91,.32-1.6,.98-2.05,.65-.46,1.69-.68,3.11-.68h3.33v2.25c-.36,1.07-.92,1.86-1.69,2.35Z"/></g></g></g></svg>