<svg width="323" height="294" viewBox="0 0 323 294" fill="none" xmlns="http://www.w3.org/2000/svg">
<path d="M322.346 222.404V71.6836C322.346 52.9932 315.076 35.0551 302.109 21.6925L301.487 21.0593C288.131 7.63298 270.017 0.0917583 251.13 0.09172L227.538 0C221.328 8.492e-05 216.294 5.06103 216.294 11.304C216.294 17.547 221.328 22.6079 227.538 22.608L251.13 22.6997C264.054 22.6998 276.447 27.8598 285.585 37.0456C294.723 46.2316 299.857 58.692 299.857 71.6836V222.404C299.857 235.395 294.724 247.853 285.585 257.04L285.155 257.467C276.059 266.386 263.851 271.388 251.13 271.388H71.2161C58.2929 271.388 45.8991 266.226 36.7614 257.04C27.6225 247.853 22.4891 235.395 22.4891 222.404V131.972C22.4891 125.729 17.4547 120.668 11.2445 120.668C5.03432 120.668 -0.000154495 125.729 -0.000154495 131.972V222.404C-0.0001136 241.392 7.5029 259.6 20.8591 273.026C34.2137 286.451 52.3275 293.996 71.2161 293.996H251.13C270.018 293.996 288.132 286.452 301.487 273.027C314.843 259.6 322.346 241.392 322.346 222.404Z" fill="white"/>
<path d="M36.8213 36.9957C27.683 46.1831 22.5499 58.6406 22.5498 71.6318L22.5498 89.5778C22.5498 95.1006 18.0727 99.5778 12.5498 99.5778L10.0605 99.5778C4.5377 99.5778 0.0605465 95.1006 0.060546 89.5778L0.0605469 71.6318C0.0605861 52.6437 7.5642 34.4355 20.9193 21.0089C34.2745 7.58416 52.3882 0.0400421 71.2764 0.0400023L255.522 0.0399862C261.045 0.0399857 265.522 4.51714 265.522 10.04L265.522 12.648C265.522 18.1709 261.045 22.648 255.522 22.648L71.2764 22.648C58.5557 22.6481 46.3474 27.6497 37.2522 36.5683L36.8213 36.9957Z" fill="white"/>
<path d="M105.741 70.7661H216.88C231.08 70.7661 242.81 80.0272 246.515 92.9921L161.315 149.798L76.106 92.9921C79.8109 80.0275 91.5412 70.7671 105.741 70.7661ZM105.741 86.0204C102.46 86.0208 99.4716 86.9595 97.0111 88.5926L161.305 131.455L225.6 88.5926C223.14 86.9628 220.158 86.0204 216.88 86.0204H105.741Z" fill="white"/>
<path d="M216.851 203.67V218.924H105.721V203.67H216.851ZM232.472 188.048V135.601L173.431 174.829L172.647 175.346L171.813 175.763C171.463 175.938 166.822 178.613 161.286 178.613C155.749 178.613 151.108 175.938 150.759 175.763L149.924 175.346L149.14 174.829L90.099 135.601V188.048C90.099 196.911 96.8573 203.67 105.721 203.67V218.924L104.102 218.884C87.5901 218.069 74.8447 204.794 74.8447 188.048V107.168L157.581 162.118C158.508 162.581 159.435 163.047 160.362 163.25L161.286 163.359C162.521 163.359 163.755 162.735 164.99 162.118L247.727 107.168V188.048C247.727 205.336 234.139 218.924 216.851 218.924V203.67C225.714 203.67 232.472 196.911 232.472 188.048Z" fill="white"/>
</svg>
