<?xml version="1.0" encoding="UTF-8"?><svg xmlns="http://www.w3.org/2000/svg" viewBox="0 0 610.98 104.74"><defs><style>.d{fill:#fff;}</style></defs><g id="a"/><g id="b"><g id="c"><g><path class="d" d="M327.16,1.63V101.74c0,.85-.69,1.54-1.54,1.54h-31.47c-.46,0-.9-.21-1.2-.57l-37.55-46.36c-.91-1.13-2.74-.48-2.74,.97v44.43c0,.85-.69,1.54-1.54,1.54h-28.63c-.85,0-1.54-.69-1.54-1.54V1.63c0-.85,.69-1.54,1.54-1.54h29.71c.45,0,.88,.2,1.17,.54l37.38,43.97c.93,1.09,2.71,.44,2.71-1V1.63c0-.85,.69-1.54,1.54-1.54h30.62c.85,0,1.54,.69,1.54,1.54Z"/><path class="d" d="M101.49,0H48.33S2.21-1.71,0,51.37C0,51.37-1.37,106.24,61.14,103.14c0,0,7.49-18.52,11.84-29.27,.65-1.6,3.03-1.13,3.03,.6v28.81h30.16V44.86H49.45l-7.59,25.79s-14.94-5.85-11.57-24.37c0,0,2.68-14.97,22.71-16.38,.05,0,.1,0,.15,0h36.48L101.49,0Z"/><path class="d" d="M164.56,104.74c-9.15,0-17.24-1.79-24.27-5.39-7.03-3.59-12.57-8.53-16.6-14.83-4.03-6.29-6.05-13.52-6.05-21.69s2.01-15.39,6.05-21.69c4.03-6.29,9.56-11.21,16.6-14.75,7.03-3.54,15.12-5.31,24.27-5.31s17.26,1.77,24.34,5.31c7.08,3.54,12.61,8.46,16.6,14.75,3.98,6.29,5.97,13.52,5.97,21.69s-1.99,15.39-5.97,21.69c-3.98,6.29-9.52,11.24-16.6,14.83-7.08,3.59-15.19,5.39-24.34,5.39Zm0-25.97c2.46,0,4.67-.59,6.64-1.77,1.97-1.18,3.54-2.97,4.72-5.38,1.18-2.41,1.77-5.33,1.77-8.78s-.59-6.47-1.77-8.78c-1.18-2.31-2.76-4.06-4.72-5.24-1.97-1.18-4.18-1.77-6.64-1.77s-4.67,.59-6.64,1.77c-1.97,1.18-3.54,2.93-4.72,5.24-1.18,2.31-1.77,5.24-1.77,8.78s.59,6.37,1.77,8.78c1.18,2.41,2.75,4.2,4.72,5.38,1.97,1.18,4.18,1.77,6.64,1.77Z"/><path class="d" d="M419.72,39.82c-4.07-6.18-9.49-10.85-16.22-14.01-6.73-3.15-14.08-4.72-22.05-4.72-8.67,0-16.44,1.76-23.39,5.31-6.93,3.53-12.39,8.44-16.37,14.75-3.97,6.28-5.99,13.51-5.99,21.68s2.04,15.12,6.06,21.46c4.02,6.36,9.71,11.35,17.04,14.98,7.33,3.65,15.92,5.46,25.75,5.46,8.05,0,14.98-1.09,20.71-3.33,5.76-2.21,10.6-5.41,14.53-9.66l-17.41-17.56c-2.63,1.99-5.19,3.45-7.6,4.45-2.41,.97-5.46,1.47-9.21,1.47s-6.73-.62-9.29-1.84c-2.56-1.24-4.52-3.08-5.91-5.54-.37-.65-.67-1.34-.94-2.06h55.98c.1-1.19,.2-2.48,.3-3.92,.1-1.42,.15-2.71,.15-3.9,0-9.14-2.04-16.81-6.13-23.02Zm-51.04,14.75c.3-1.37,.72-2.63,1.27-3.75,1.07-2.21,2.61-3.92,4.64-5.17,2.01-1.22,4.4-1.84,7.15-1.84s5.12,.62,7.08,1.84c1.96,1.24,3.5,2.96,4.64,5.17,.57,1.12,.99,2.38,1.29,3.75h-26.08Z"/><polygon class="d" points="523.66 103.28 485.46 103.28 474.31 86.07 461.99 103.28 425.86 103.28 456.33 63.34 426.75 22.56 464.35 22.56 475.83 39.72 487.97 22.56 522.91 22.56 493.33 61.88 523.66 103.28"/><path class="d" d="M599.53,30.38c-7.62-6.18-18.35-9.29-32.24-9.29-6.28,0-12.74,.79-19.32,2.36s-12.24,3.82-16.96,6.78l10.63,21.98c2.66-1.96,5.84-3.5,9.59-4.64,3.73-1.12,7.43-1.69,11.05-1.69,5.41,0,9.31,1.04,11.75,3.1,1.84,1.56,2.96,3.68,3.4,6.33h-13.36c-8.37,0-15.27,.94-20.74,2.81s-9.51,4.62-12.17,8.27c-2.66,3.63-3.97,8.05-3.97,13.26,0,4.62,1.12,8.84,3.38,12.62,2.26,3.8,5.61,6.8,10.03,9.06,4.42,2.26,9.93,3.4,16.52,3.4,7,0,12.54-1.47,16.69-4.42,2.66-1.91,4.72-4.45,6.18-7.62v10.58h30.99V59.89c0-13.46-3.82-23.3-11.45-29.5Zm-26.1,52.45c-1.91,1.24-4.02,1.84-6.28,1.84-2.46,0-4.4-.6-5.81-1.84-1.44-1.22-2.14-2.78-2.14-4.64,0-2.26,.79-3.97,2.43-5.09,1.61-1.14,4.2-1.69,7.72-1.69h8.27v5.59c-.89,2.66-2.28,4.62-4.2,5.84Z"/></g></g></g></svg>