<svg width="39" height="39" viewBox="0 0 39 39" fill="none" xmlns="http://www.w3.org/2000/svg">
<path d="M29.8144 17.2874C28.5564 17.2874 27.5342 18.3096 27.5342 19.5677C27.5342 20.8257 28.5564 21.8479 29.8144 21.8479C31.0725 21.8479 32.0947 20.8257 32.0947 19.5677C32.0947 18.3096 31.0725 17.2874 29.8144 17.2874Z" fill="#C3C3C3"/>
<path d="M19.6602 9.43835C14.3606 9.43835 10.0518 13.7472 10.0518 19.0468C10.0518 24.3464 14.3606 28.6553 19.6602 28.6553C24.9598 28.6553 29.2687 24.3464 29.2687 19.0468C29.2687 13.7472 24.9598 9.43835 19.6602 9.43835ZM19.6602 25.1956C16.2635 25.1956 13.5114 22.4279 13.5114 19.0468C13.5114 15.6658 16.2792 12.898 19.6602 12.898C23.0413 12.898 25.809 15.6658 25.809 19.0468C25.809 22.4279 23.0413 25.1956 19.6602 25.1956Z" fill="#C3C3C3"/>
<path d="M27.2843 39H11.7157C5.25242 39 0 33.7476 0 27.2843V11.7157C0 5.25242 5.25242 0 11.7157 0H27.2843C33.7476 0 39 5.25242 39 11.7157V27.2843C39 33.7476 33.7476 39 27.2843 39ZM11.7157 3.66411C7.28104 3.66411 3.6641 7.28105 3.6641 11.7157V27.2843C3.6641 31.719 7.28104 35.3359 11.7157 35.3359H27.2843C31.719 35.3359 35.3359 31.719 35.3359 27.2843V11.7157C35.3359 7.28105 31.719 3.66411 27.2843 3.66411H11.7157Z" fill="#C3C3C3"/>
</svg>
