<svg width="30" height="36" viewBox="0 0 30 36" fill="none" xmlns="http://www.w3.org/2000/svg">
<path fill-rule="evenodd" clip-rule="evenodd" d="M12.5919 23.4727C12.5617 23.5709 12.5315 23.6691 12.5013 23.7532C11.0827 28.9283 10.9167 30.0923 9.45285 32.4905C8.75864 33.6405 7.97389 34.7204 7.09859 35.7582C6.99295 35.8704 6.90239 36.0247 6.7062 35.9967C6.49492 35.9546 6.47984 35.7723 6.44965 35.618C6.20819 34.0472 6.08746 32.4625 6.14783 30.8777C6.22329 28.8021 6.49494 28.1008 9.3623 16.8671C9.40757 16.6988 9.36229 16.5586 9.30192 16.4043C8.60772 14.6793 8.47191 12.9262 9.07556 11.1591C10.3734 7.33043 15.0517 7.03592 15.8667 10.1915C16.3647 12.1409 15.0367 14.7074 14.0104 18.48C13.1653 21.5934 17.1193 23.8093 20.4846 21.5373C23.5935 19.4336 24.8008 14.4128 24.5744 10.8366C24.1217 3.72613 15.7309 2.19745 10.4036 4.48345C4.30669 7.10605 2.91826 14.1324 5.66489 17.344C6.012 17.7507 6.28364 18.0031 6.16291 18.4099C5.98182 19.055 5.83092 19.7001 5.63473 20.3452C5.49891 20.8221 5.06125 20.9904 4.54815 20.794C3.53703 20.4154 2.6919 19.8123 1.9977 19.0269C-0.341462 16.3342 -1.00549 11.0049 2.08825 6.50298C5.51399 1.51024 11.8826 -0.509297 17.7078 0.107784C24.665 0.837062 29.0565 5.2548 29.8715 10.2616C30.2488 12.5476 29.9771 18.1714 26.5363 22.1404C22.5672 26.7124 16.1534 27.0069 13.1804 24.202C12.954 23.9916 12.773 23.7392 12.5466 23.4727H12.5919Z" fill="#C3C3C3"/>
</svg>
