<svg width="323" height="294" viewBox="0 0 323 294" fill="none" xmlns="http://www.w3.org/2000/svg">
<path d="M103.101 146.99C100.882 146.99 98.7543 147.939 97.1855 149.628C95.6167 151.317 94.7354 153.608 94.7354 155.996V228.05C94.7354 230.439 95.6167 232.73 97.1855 234.419C98.7543 236.108 100.882 237.057 103.101 237.057C105.319 237.057 107.447 236.108 109.016 234.419C110.585 232.73 111.466 230.439 111.466 228.05V155.996C111.466 153.608 110.585 151.317 109.016 149.628C107.447 147.939 105.319 146.99 103.101 146.99ZM144.928 56.9224C142.709 56.9224 140.581 57.8713 139.012 59.5604C137.444 61.2495 136.562 63.5404 136.562 65.9291V228.05C136.562 230.439 137.444 232.73 139.012 234.419C140.581 236.108 142.709 237.057 144.928 237.057C147.146 237.057 149.274 236.108 150.843 234.419C152.412 232.73 153.293 230.439 153.293 228.05V65.9291C153.293 63.5404 152.412 61.2495 150.843 59.5604C149.274 57.8713 147.146 56.9224 144.928 56.9224ZM228.582 183.017C226.363 183.017 224.235 183.966 222.666 185.655C221.098 187.344 220.216 189.635 220.216 192.023V228.05C220.216 230.439 221.098 232.73 222.666 234.419C224.235 236.108 226.363 237.057 228.582 237.057C230.8 237.057 232.928 236.108 234.497 234.419C236.066 232.73 236.947 230.439 236.947 228.05V192.023C236.947 189.635 236.066 187.344 234.497 185.655C232.928 183.966 230.8 183.017 228.582 183.017ZM186.755 110.963C184.536 110.963 182.408 111.912 180.839 113.601C179.271 115.29 178.389 117.581 178.389 119.97V228.05C178.389 230.439 179.271 232.73 180.839 234.419C182.408 236.108 184.536 237.057 186.755 237.057C188.973 237.057 191.101 236.108 192.67 234.419C194.239 232.73 195.12 230.439 195.12 228.05V119.97C195.12 117.581 194.239 115.29 192.67 113.601C191.101 111.912 188.973 110.963 186.755 110.963Z" fill="white"/>
<path d="M0 222.404V71.6836C3.7574e-05 52.9932 7.27018 35.0551 20.2368 21.6925L20.8588 21.0593C34.2147 7.63298 52.3288 0.0917583 71.2159 0.09172L94.8077 0C101.018 8.492e-05 106.052 5.06103 106.052 11.304C106.052 17.547 101.018 22.6079 94.8077 22.608L71.2159 22.6997C58.2924 22.6998 45.8989 27.8598 36.7612 37.0456C27.6234 46.2316 22.4893 58.692 22.4893 71.6836V222.404C22.4893 235.395 27.6225 247.853 36.7607 257.04L37.1916 257.467C46.2869 266.386 58.4952 271.388 71.2159 271.388H251.13C264.053 271.388 276.447 266.226 285.585 257.04C294.724 247.853 299.857 235.395 299.857 222.404V131.972C299.857 125.729 304.891 120.668 311.102 120.668C317.312 120.668 322.346 125.729 322.346 131.972V222.404C322.346 241.392 314.843 259.6 301.487 273.026C288.133 286.451 270.019 293.996 251.13 293.996H71.2159C52.3277 293.996 34.214 286.452 20.8588 273.027C7.50365 259.6 4.08948e-05 241.392 0 222.404Z" fill="white"/>
<path d="M285.519 36.9936C294.657 46.1809 299.79 58.6384 299.791 71.6297L299.791 89.5756C299.791 95.0985 304.268 99.5756 309.791 99.5756L312.28 99.5756C317.803 99.5756 322.28 95.0985 322.28 89.5756L322.28 71.6297C322.28 52.6415 314.776 34.4333 301.421 21.0068C288.066 7.58203 269.952 0.0379059 251.064 0.0378661L66.8181 0.03785C61.2953 0.0378495 56.8181 4.51501 56.8181 10.0378L56.8181 12.6459C56.8181 18.1687 61.2953 22.6459 66.8181 22.6459L251.064 22.6459C263.785 22.6459 275.993 27.6476 285.088 36.5661L285.519 36.9936Z" fill="white"/>
</svg>
