<svg width="323" height="294" viewBox="0 0 323 294" fill="none" xmlns="http://www.w3.org/2000/svg">
<path d="M0 222.404V71.6836C3.7574e-05 52.9932 7.27018 35.0551 20.2368 21.6925L20.8588 21.0593C34.2147 7.63298 52.3288 0.0917583 71.2159 0.09172L94.8077 0C101.018 8.492e-05 106.052 5.06103 106.052 11.304C106.052 17.547 101.018 22.6079 94.8077 22.608L71.2159 22.6997C58.2924 22.6998 45.8989 27.8598 36.7612 37.0456C27.6234 46.2316 22.4893 58.692 22.4893 71.6836V222.404C22.4893 235.395 27.6225 247.853 36.7607 257.04L37.1916 257.467C46.2869 266.386 58.4952 271.388 71.2159 271.388H251.13C264.053 271.388 276.447 266.226 285.585 257.04C294.724 247.853 299.857 235.395 299.857 222.404V131.972C299.857 125.729 304.891 120.668 311.102 120.668C317.312 120.668 322.346 125.729 322.346 131.972V222.404C322.346 241.392 314.843 259.6 301.487 273.026C288.133 286.451 270.019 293.996 251.13 293.996H71.2159C52.3277 293.996 34.214 286.452 20.8588 273.027C7.50365 259.6 4.08948e-05 241.392 0 222.404Z" fill="white"/>
<path d="M285.519 36.9914C294.657 46.1788 299.79 58.6363 299.791 71.6276L299.791 89.5735C299.791 95.0963 304.268 99.5735 309.791 99.5735L312.28 99.5735C317.803 99.5735 322.28 95.0963 322.28 89.5735L322.28 71.6276C322.28 52.6394 314.776 34.4312 301.421 21.0047C288.066 7.57989 269.952 0.0357697 251.064 0.0357299L66.8181 0.0357138C61.2953 0.0357133 56.8181 4.51287 56.8181 10.0357L56.8181 12.6437C56.8181 18.1666 61.2953 22.6437 66.8181 22.6437L251.064 22.6437C263.785 22.6438 275.993 27.6455 285.088 36.564L285.519 36.9914Z" fill="white"/>
<rect x="82.5098" y="70.7576" width="58.9345" height="58.9345" rx="1" fill="white"/>
<rect x="176.763" y="70.7576" width="58.9345" height="58.9345" rx="1" fill="white"/>
<rect x="176.763" y="165.062" width="58.9345" height="58.9345" rx="1" fill="white"/>
<rect x="82.5098" y="165.062" width="58.9345" height="58.9345" rx="1" fill="white"/>
</svg>
