<svg width="297" height="288" viewBox="0 0 297 288" fill="none" xmlns="http://www.w3.org/2000/svg">
<path d="M0 221.661V83.1616C3.45274e-05 65.9866 6.6807 49.503 18.596 37.2238L19.1675 36.642C31.4406 24.3043 48.0859 17.3745 65.4416 17.3745H151.963C157.669 17.3745 162.296 22.0251 162.296 27.7619C162.296 33.4987 157.669 38.1493 151.963 38.1494H65.4416C53.5659 38.1494 42.1774 42.8911 33.7805 51.3321L33.7801 51.3325C25.3833 59.7737 20.6658 71.2234 20.6658 83.1616V221.661C20.6658 233.599 25.3828 245.047 33.7801 253.489L34.1761 253.882C42.5339 262.077 53.7523 266.673 65.4416 266.673H230.768C242.643 266.673 254.032 261.93 262.429 253.489C270.827 245.047 275.544 233.599 275.544 221.661V138.562C275.544 132.825 280.17 128.174 285.877 128.174C291.584 128.174 296.21 132.825 296.21 138.562V221.661C296.21 239.11 289.315 255.841 277.042 268.179C264.77 280.516 248.125 287.448 230.768 287.448H65.4416C48.0849 287.448 31.4398 280.516 19.1675 268.18L19.1671 268.179C6.89484 255.841 3.7579e-05 239.11 0 221.661Z" fill="white"/>
<path d="M296.221 83.1376L296.221 221.637C296.221 238.812 289.54 255.296 277.625 267.575L277.054 268.157C264.781 280.495 248.135 287.424 230.78 287.424L144.258 287.424C138.552 287.424 133.926 282.774 133.926 277.037C133.926 271.3 138.552 266.65 144.258 266.65L230.78 266.65C242.655 266.649 254.044 261.908 262.441 253.467L262.441 253.466C270.838 245.025 275.555 233.576 275.555 221.637L275.555 83.1376C275.555 71.1997 270.838 59.7522 262.441 51.3098L262.045 50.917C253.687 42.7216 242.469 38.1254 230.78 38.1254L65.4531 38.1254C53.5777 38.1254 42.1888 42.8687 33.7921 51.3098C25.3941 59.7521 20.677 71.1994 20.6769 83.1376L20.6769 166.237C20.6769 171.974 16.0507 176.625 10.344 176.625C4.63737 176.625 0.0111093 171.974 0.0111098 166.237L0.011117 83.1376C0.0111561 65.6891 6.90582 48.9577 19.1791 36.6196C31.4509 24.283 48.096 17.3505 65.4531 17.3505L230.78 17.3505C248.136 17.3505 264.781 24.283 277.054 36.6192L277.054 36.6196C289.326 48.9575 296.221 65.689 296.221 83.1376Z" fill="white"/>
<rect x="61.0244" y="95.7693" width="43.5603" height="43.5603" rx="1" fill="white"/>
<rect x="61.0244" y="182.859" width="43.5603" height="43.5603" rx="1" fill="white"/>
<rect x="130.724" y="95.7693" width="43.5603" height="43.5603" rx="1" fill="white"/>
<rect x="130.724" y="182.859" width="43.5603" height="43.5603" rx="1" fill="white"/>
<rect x="200.401" y="95.7693" width="43.5603" height="43.5603" rx="1" fill="white"/>
<rect x="200.401" y="182.859" width="43.5603" height="43.5603" rx="1" fill="white"/>
<rect x="182.909" width="17.4241" height="52.2724" rx="8.71206" fill="white"/>
<rect x="104.563" width="17.4241" height="52.2724" rx="8.71206" fill="white"/>
</svg>
