<svg width="316" height="288" viewBox="0 0 316 288" fill="none" xmlns="http://www.w3.org/2000/svg">
<path d="M246.065 148.385H286.949C292.307 148.385 296.651 153.365 296.651 159.509C296.651 165.653 292.307 170.634 286.949 170.634H246.065C233.468 170.634 230.175 170.872 227.41 172.33C224.645 173.787 222.343 176.5 214.143 187.468L206.312 197.945C199.27 207.363 193.949 214.849 186.419 218.818C178.892 222.787 170.476 222.549 159.656 222.549H155.509C144.689 222.549 136.273 222.787 128.746 218.817C121.217 214.848 115.896 207.365 108.854 197.946L101.021 187.467C92.8225 176.501 90.5224 173.788 87.7582 172.331C84.9932 170.873 81.6973 170.634 69.0996 170.634H28.2166C22.8581 170.634 18.5142 165.653 18.5142 159.509C18.5142 153.365 22.8581 148.385 28.2166 148.385H69.0996C79.9213 148.385 88.338 148.147 95.8658 152.117C103.394 156.086 108.714 163.57 115.755 172.988L123.587 183.466C131.786 194.433 134.087 197.145 136.851 198.602C139.616 200.06 142.912 200.3 155.509 200.3H159.656C172.253 200.3 175.547 200.062 178.312 198.603C181.076 197.146 183.378 194.434 191.579 183.466L199.41 172.989C206.45 163.572 211.771 156.087 219.3 152.118C226.828 148.147 235.244 148.385 246.065 148.385Z" fill="white"/>
<path d="M148.272 9.51521C148.272 4.2601 152.423 0 157.544 0C162.664 7.84722e-07 166.815 4.2601 166.815 9.51521V88.0391L188.073 66.2218C191.693 62.5058 197.564 62.5058 201.184 66.2218C204.805 69.9377 204.805 75.9625 201.184 79.6784L164.099 117.739C160.479 121.455 154.609 121.455 150.988 117.739L113.903 79.6784C110.282 75.9625 110.282 69.9377 113.903 66.2218C117.524 62.5058 123.394 62.5058 127.015 66.2218L148.272 88.0391V9.51521Z" fill="white"/>
<path d="M0 217.488V70.0993C3.67436e-05 51.8219 7.1095 34.2804 19.7896 21.2131L20.3978 20.5939C33.4585 7.46429 51.1722 0.0897303 69.6419 0.0896928L92.7124 0C98.7853 8.30432e-05 103.708 4.94917 103.708 11.0542C103.708 17.1592 98.7853 22.1083 92.7124 22.1083L69.6419 22.198C57.004 22.1981 44.8845 27.244 35.9487 36.2269C27.0129 45.2098 21.9923 57.3948 21.9922 70.0993V217.488C21.9923 230.193 27.012 242.375 35.9483 251.359L36.3696 251.777C45.2639 260.499 57.2023 265.39 69.6419 265.39H245.58C258.217 265.39 270.337 260.342 279.273 251.359C288.21 242.375 293.23 230.193 293.23 217.488V129.055C293.23 122.95 298.153 118.001 304.226 118.001C310.299 118.001 315.222 122.95 315.222 129.055V217.488C315.222 236.057 307.885 253.862 294.824 266.992C281.764 280.121 264.051 287.498 245.58 287.498H69.6419C51.1712 287.498 33.4578 280.121 20.3978 266.993C7.33781 253.863 3.99909e-05 236.057 0 217.488Z" fill="white"/>
<path d="M279.27 36.2037C288.207 45.188 293.226 57.3702 293.227 70.0743L293.227 87.4026C293.227 92.9254 297.704 97.4026 303.227 97.4026L305.219 97.4026C310.742 97.4026 315.219 92.9254 315.219 87.4026L315.219 70.0743C315.219 51.5058 307.881 33.7001 294.821 20.5702C281.761 7.44219 264.048 0.0648072 245.577 0.0647675L223.235 0.0647655C217.712 0.064765 213.235 4.54192 213.235 10.0648L213.235 12.1731C213.235 17.696 217.712 22.1731 223.235 22.1731L245.577 22.1731C258.016 22.1732 269.955 27.0643 278.849 35.7857L279.27 36.2037Z" fill="white"/>
</svg>
