<svg width="35" height="40" viewBox="0 0 35 40" fill="none" xmlns="http://www.w3.org/2000/svg">
<path d="M26.6722 18.3136C26.8543 18.3951 27.0199 18.4766 27.202 18.5418C29.6689 19.7149 31.4901 21.4745 32.4338 23.6578C33.7583 26.7047 33.8908 31.6415 29.8676 35.5845C26.8047 38.5988 23.063 39.9511 17.7981 40H17.7649C11.8212 39.9511 7.26818 37.9959 4.1887 34.1507C1.4569 30.7291 0.049669 25.9715 0 20.0244V19.9919C0.049669 14.0122 1.44035 9.25458 4.1887 5.84929C7.26818 2.00407 11.8378 0.0488798 17.7815 0H17.8145C23.7582 0.0488798 28.3941 2.00407 31.5564 5.8167C33.1127 7.70672 34.2715 9.98778 35 12.6273L31.5728 13.5234C30.9768 11.3727 30.0663 9.54786 28.8411 8.08147C26.3742 5.0998 22.6656 3.56823 17.7981 3.53564C12.9802 3.58452 9.32113 5.0998 6.95358 8.06517C4.73503 10.835 3.59265 14.8595 3.54298 19.9919C3.59265 25.1242 4.73503 29.1487 6.95358 31.9348C9.32113 34.9002 12.9802 36.4318 17.7981 36.4644C22.1524 36.4318 25.0332 35.4216 27.4173 33.0591C30.1491 30.3707 30.0993 27.0794 29.2219 25.0754C28.7086 23.8859 27.7814 22.9083 26.5232 22.1752C26.2086 24.4236 25.5298 26.1996 24.4371 27.5682C22.9967 29.3768 20.9272 30.3707 18.2781 30.501C16.2748 30.6151 14.3543 30.1426 12.8642 29.165C11.1092 28.0081 10.0662 26.2648 9.96684 24.2281C9.75161 20.2037 12.9966 17.3198 18.0298 17.0265C19.8178 16.9287 21.4901 16.9939 23.0464 17.2546C22.8477 16.0163 22.4338 15.0387 21.8047 14.3218C20.9603 13.3442 19.6358 12.8554 17.8974 12.8391H17.8311C16.4238 12.8391 14.5364 13.2301 13.3113 15.0224L10.3973 13.0509C12.0198 10.6232 14.6523 9.28717 17.8311 9.28717H17.8974C23.1954 9.31976 26.3576 12.5784 26.6722 18.2648H26.6556V18.2811L26.6722 18.3136ZM13.4602 24.0326C13.5761 26.1181 15.8609 27.0957 18.0795 26.9654C20.2484 26.8513 22.6987 26.0204 23.1126 20.8717C22.0033 20.6273 20.7616 20.5132 19.4371 20.5132C19.0232 20.5132 18.6259 20.5132 18.212 20.5458C14.5861 20.7413 13.3774 22.4847 13.4602 24.0326Z" fill="#C3C3C3"/>
</svg>
