<svg width="35" height="41" viewBox="0 0 35 41" fill="none" xmlns="http://www.w3.org/2000/svg">
<path d="M35 16.6018C34.6645 16.6324 34.329 16.6476 33.9935 16.6476C30.3181 16.6476 26.8715 14.7826 24.8584 11.6946V28.541C24.8584 35.4202 19.2919 41 12.4292 41C5.56645 41 0 35.4202 0 28.541C0 21.6618 5.56645 16.082 12.4292 16.082C12.6885 16.082 12.9477 16.1126 13.1917 16.1279V22.258C12.9325 22.2274 12.6885 22.1816 12.4292 22.1816C8.92157 22.1816 6.08497 25.025 6.08497 28.541C6.08497 32.057 8.92157 34.9004 12.4292 34.9004C15.9368 34.9004 19.0174 32.1335 19.0174 28.6175L19.0784 0H24.9346C25.4837 5.25876 29.7233 9.37099 34.9848 9.76846V16.5865L35 16.6018Z" fill="#C3C3C3"/>
</svg>
