<svg width="323" height="294" viewBox="0 0 323 294" fill="none" xmlns="http://www.w3.org/2000/svg">
<path d="M0 222.404V71.6836C3.7574e-05 52.9932 7.27018 35.0551 20.2368 21.6925L20.8588 21.0593C34.2147 7.63298 52.3288 0.0917583 71.2159 0.09172L94.8077 0C101.018 8.492e-05 106.052 5.06103 106.052 11.304C106.052 17.547 101.018 22.6079 94.8077 22.608L71.2159 22.6997C58.2924 22.6998 45.8989 27.8598 36.7612 37.0456C27.6234 46.2316 22.4893 58.692 22.4893 71.6836V222.404C22.4893 235.395 27.6225 247.853 36.7607 257.04L37.1916 257.467C46.2869 266.386 58.4952 271.388 71.2159 271.388H251.13C264.053 271.388 276.447 266.226 285.585 257.04C294.724 247.853 299.857 235.395 299.857 222.404V131.972C299.857 125.729 304.891 120.668 311.102 120.668C317.312 120.668 322.346 125.729 322.346 131.972V222.404C322.346 241.392 314.843 259.6 301.487 273.026C288.133 286.451 270.019 293.996 251.13 293.996H71.2159C52.3277 293.996 34.214 286.452 20.8588 273.027C7.50365 259.6 4.08948e-05 241.392 0 222.404Z" fill="white"/>
<path d="M285.519 36.9942C294.657 46.1816 299.79 58.6391 299.791 71.6304L299.791 89.5763C299.791 95.0991 304.268 99.5763 309.791 99.5763L312.28 99.5763C317.803 99.5763 322.28 95.0991 322.28 89.5763L322.28 71.6304C322.28 52.6422 314.776 34.434 301.421 21.0075C288.066 7.5827 269.952 0.0385773 251.064 0.0385375L66.8181 0.0385214C61.2953 0.0385209 56.8181 4.51568 56.8181 10.0385L56.8181 12.6466C56.8181 18.1694 61.2953 22.6466 66.8181 22.6466L251.064 22.6466C263.785 22.6466 275.993 27.6483 285.088 36.5668L285.519 36.9942Z" fill="white"/>
<path fill-rule="evenodd" clip-rule="evenodd" d="M256.664 144.03C255.468 96.7701 215.934 58.8702 167.362 58.8702C118.791 58.8702 80.1868 95.9191 78.0605 142.394C78.0605 143.703 77.9941 144.947 77.9941 146.256C77.9941 162.751 82.7117 178.199 90.8179 191.356L74.7383 238.224L124.24 222.71C137.064 229.649 151.748 233.576 167.429 233.576C216.797 233.576 256.797 194.433 256.797 146.19C256.797 145.47 256.797 144.685 256.797 143.965L256.664 144.03ZM167.362 219.699C152.08 219.699 137.927 215.248 126.034 207.524L97.1966 216.623L106.565 189.327C97.5953 177.217 92.2797 162.358 92.2797 146.256C92.2797 143.834 92.4126 141.478 92.6784 139.121C96.3329 101.941 128.492 72.8127 167.429 72.8127C206.366 72.8127 239.322 102.727 242.312 140.561C242.512 142.459 242.578 144.358 242.578 146.321C242.578 186.84 208.824 219.765 167.429 219.765L167.362 219.699Z" fill="white"/>
<path fill-rule="evenodd" clip-rule="evenodd" d="M208.346 163.952C206.153 162.904 195.389 157.668 193.395 157.013C191.402 156.293 189.94 155.966 188.478 158.061C187.017 160.221 182.764 164.999 181.502 166.439C180.173 167.879 178.977 168.076 176.718 166.963C174.525 165.915 167.482 163.69 159.11 156.359C152.598 150.729 148.213 143.725 146.95 141.565C145.688 139.405 146.818 138.292 147.881 137.18C148.877 136.198 150.073 134.692 151.203 133.449C151.469 133.056 151.734 132.729 152 132.401C152.532 131.616 152.864 130.896 153.396 129.848C154.126 128.408 153.794 127.165 153.196 126.117C152.665 125.07 148.279 114.466 146.419 110.211C144.625 105.956 142.764 106.676 141.502 106.676C140.24 106.676 138.778 106.48 137.316 106.48C135.854 106.48 133.462 107.004 131.469 109.164C129.475 111.324 123.828 116.495 123.828 127.034C123.828 129.521 124.293 132.008 124.957 134.3C127.15 141.827 131.934 148.046 132.798 149.158C133.861 150.533 147.947 172.919 170.206 181.494C192.532 190.004 192.532 187.189 196.518 186.796C200.505 186.469 209.475 181.625 211.269 176.585C213.13 171.61 213.13 167.29 212.598 166.374C212.066 165.523 210.605 164.999 208.412 163.886L208.346 163.952Z" fill="white"/>
</svg>
